<?xml version="1.0" encoding="utf-8"?>
<!-- Generator: Adobe Illustrator 27.3.1, SVG Export Plug-In . SVG Version: 6.00 Build 0)  -->
<svg version="1.1" xmlns="http://www.w3.org/2000/svg" xmlns:xlink="http://www.w3.org/1999/xlink" x="0px" y="0px"
	 viewBox="0 0 617 502" style="enable-background:new 0 0 617 502;" xml:space="preserve">
<style type="text/css">
	.st0{fill:none;}
	.st1{fill:#FFFFFF;}
</style>
<g id="Bg">
</g>
<g id="Object">
	<g>
		<path class="st0" d="M371.28,370.43l35.31,35.31c6.23,6.22,13.49,10.64,21.64,13.48c8.12,2.83,17.17,4.01,26.61,3.38
			c18.86-1.24,39.08-9.86,55.34-26.12c12.19-12.2,20.09-26.59,23.79-41.02c3.73-14.43,3.2-28.75-1.05-40.93
			c-2.84-8.15-7.29-15.39-13.5-21.62l-135.98-136c-6.23-6.22-13.48-10.64-21.62-13.48c-8.15-2.83-17.19-4.03-26.61-3.4
			c-3.55,0.24-7.16,0.74-10.76,1.49l55.84,55.86c11.63,11.6,20.06,25.49,25.2,40.27c5.14,14.8,7.06,30.49,6.02,46.12
			C409.39,314.9,395.64,345.93,371.28,370.43z"/>
		<path class="st0" d="M279.61,166.44c-12.07,12.13-19.89,26.44-23.55,40.75c-3.71,14.45-3.2,28.75,1.07,40.93
			c2.84,8.15,7.27,15.4,13.48,21.62l65.8,65.82c12.06-12.15,19.88-26.44,23.56-40.75c3.71-14.45,3.18-28.75-1.07-40.93
			c-2.85-8.15-7.27-15.4-13.49-21.62L279.61,166.44z"/>
		<path class="st0" d="M244.72,131.57l-35.3-35.31c-6.25-6.2-13.48-10.64-21.64-13.48c-8.13-2.83-17.16-4.03-26.6-3.4
			c-18.88,1.25-39.1,9.87-55.34,26.14c-12.21,12.19-20.11,26.59-23.83,41.01c-3.71,14.44-3.18,28.75,1.07,40.94
			c2.84,8.15,7.29,15.39,13.5,21.62l136.01,136c6.22,6.2,13.47,10.64,21.61,13.48c8.13,2.83,17.18,4.01,26.61,3.38
			c3.55-0.24,7.15-0.72,10.76-1.48l-55.85-55.85c-11.63-11.61-20.06-25.5-25.19-40.28c-5.14-14.8-7.07-30.49-6.03-46.12
			C206.63,187.1,220.38,156.07,244.72,131.57z"/>
		<path class="st1" d="M336.41,335.56l34.87,34.87c24.36-24.5,38.11-55.53,40.22-86.66c1.04-15.62-0.88-31.31-6.02-46.12
			c-5.13-14.78-13.56-28.67-25.2-40.27l-55.84-55.86l-38.71-38.71L244.3,61.39c-11.63-11.63-25.51-20.06-40.28-25.19
			c-22.22-7.73-46.37-8.18-69.44-2.25c-23.06,5.92-45.22,18.3-63.62,36.68c-24.52,24.55-38.35,55.68-40.45,86.94
			c-1.06,15.61,0.87,31.31,6.01,46.1c5.14,14.79,13.58,28.67,25.21,40.28l136,136c11.61,11.61,25.49,20.05,40.28,25.18
			c22.22,7.72,46.35,8.18,69.42,2.27c7.76-2,15.41-4.78,22.86-8.21l-38.71-38.71c-3.61,0.75-7.21,1.24-10.76,1.48
			c-9.43,0.63-18.48-0.55-26.61-3.38c-8.13-2.85-15.39-7.29-21.61-13.48l-136.01-136c-6.22-6.23-10.66-13.47-13.5-21.62
			c-4.25-12.19-4.78-26.5-1.07-40.94c3.72-14.41,11.61-28.81,23.83-41.01c16.24-16.27,36.46-24.89,55.34-26.14
			c9.44-0.63,18.47,0.57,26.6,3.4c8.15,2.85,15.39,7.29,21.64,13.48l35.3,35.31l34.88,34.87l65.8,65.82
			c6.22,6.22,10.64,13.47,13.49,21.62c4.25,12.18,4.78,26.48,1.07,40.93C356.29,309.13,348.47,323.42,336.41,335.56z"/>
		<path class="st1" d="M279.61,166.44l-34.88-34.87c-24.34,24.5-38.1,55.53-40.2,86.66c-1.04,15.62,0.88,31.31,6.03,46.12
			c5.13,14.78,13.56,28.67,25.19,40.28l55.85,55.85l38.71,38.71l41.43,41.43c11.61,11.63,25.49,20.05,40.28,25.19
			c22.22,7.73,46.35,8.18,69.42,2.25c23.08-5.93,45.22-18.3,63.62-36.69c24.52-24.54,38.35-55.69,40.45-86.93
			c1.04-15.62-0.88-31.3-6.02-46.12c-5.13-14.78-13.57-28.66-25.19-40.27L418.3,122.06c-11.63-11.63-25.49-20.08-40.28-25.21
			c-22.22-7.71-46.36-8.18-69.43-2.27c-7.75,2-15.42,4.8-22.86,8.23l38.71,38.71c3.6-0.75,7.21-1.26,10.76-1.49
			c9.42-0.63,18.46,0.57,26.61,3.4c8.13,2.85,15.38,7.27,21.62,13.48l135.98,136c6.22,6.23,10.66,13.47,13.5,21.62
			c4.25,12.18,4.78,26.5,1.05,40.93c-3.7,14.43-11.6,28.83-23.79,41.02c-16.26,16.26-36.48,24.88-55.34,26.12
			c-9.44,0.63-18.49-0.55-26.61-3.38c-8.15-2.85-15.4-7.27-21.64-13.48l-35.31-35.31l-34.87-34.87l-65.8-65.82
			c-6.22-6.22-10.64-13.47-13.48-21.62c-4.27-12.18-4.78-26.48-1.07-40.93C259.72,192.87,267.54,178.57,279.61,166.44z"/>
	</g>
</g>
</svg>
