<?xml version="1.0" encoding="utf-8"?>
<!-- Generator: Adobe Illustrator 27.2.0, SVG Export Plug-In . SVG Version: 6.00 Build 0)  -->
<svg version="1.1" id="레이어_1" xmlns="http://www.w3.org/2000/svg" xmlns:xlink="http://www.w3.org/1999/xlink" x="0px"
	 y="0px" viewBox="0 0 50 50" style="enable-background:new 0 0 50 50;" xml:space="preserve">
<style type="text/css">
	.st0{fill:#0C20EC;}
	.st1{enable-background:new    ;}
	.st2{fill:#FFFFFF;}
</style>
<g>
	<path class="st0" d="M38.7,50H11.3C5.1,50,0,45,0,38.7V11.3C0,5.1,5.1,0,11.3,0h27.4C45,0,50,5.1,50,11.3v27.4C50,45,45,50,38.7,50
		z"/>
</g>
<g>
	<g class="st1">
		<path class="st2" d="M14.1,12.6h14.1c3.1,0,5.4,0.7,6.9,2.1c1.5,1.4,2.3,3.4,2.3,6.1c0,2.7-0.8,4.8-2.5,6.3
			c-1.7,1.5-4.2,2.3-7.6,2.3h-4.6v9.9h-8.5V12.6z M22.6,23.9h2.1c1.6,0,2.8-0.3,3.4-0.8c0.7-0.6,1-1.3,1-2.1c0-0.8-0.3-1.5-0.9-2.1
			C27.7,18.3,26.6,18,25,18h-2.4V23.9z"/>
	</g>
</g>
</svg>
